<?xml version="1.0" encoding="UTF-8" standalone="no"?>
<!DOCTYPE svg PUBLIC "-//W3C//DTD SVG 1.1//EN"
 "http://www.w3.org/Graphics/SVG/1.1/DTD/svg11.dtd">
<!-- Generated by graphviz version 2.43.0 (0)
 -->
<!-- Title: %3 Pages: 1 -->
<svg width="114pt" height="305pt"
 viewBox="0.00 0.00 113.85 305.00" xmlns="http://www.w3.org/2000/svg" xmlns:xlink="http://www.w3.org/1999/xlink">
<g id="graph0" class="graph" transform="scale(1 1) rotate(0) translate(4 301)">
<title>%3</title>
<polygon fill="white" stroke="transparent" points="-4,4 -4,-301 109.85,-301 109.85,4 -4,4"/>
<!-- model1 -->
<g id="node1" class="node">
<title>model1</title>
<ellipse fill="none" stroke="black" cx="44.85" cy="-18" rx="44.69" ry="18"/>
<text text-anchor="middle" x="44.85" y="-14.3" font-family="Times,serif" font-size="14.00">model1</text>
</g>
<!-- model3 -->
<g id="node2" class="node">
<title>model3</title>
<ellipse fill="none" stroke="black" cx="44.85" cy="-105" rx="44.69" ry="18"/>
<text text-anchor="middle" x="44.85" y="-101.3" font-family="Times,serif" font-size="14.00">model3</text>
</g>
<!-- model3&#45;&gt;model1 -->
<g id="edge3" class="edge">
<title>model3&#45;&gt;model1</title>
<path fill="none" stroke="black" d="M44.85,-86.8C44.85,-75.16 44.85,-59.55 44.85,-46.24"/>
<polygon fill="black" stroke="black" points="48.35,-46.18 44.85,-36.18 41.35,-46.18 48.35,-46.18"/>
<text text-anchor="middle" x="75.35" y="-57.8" font-family="Times,serif" font-size="14.00">path2(1)</text>
</g>
<!-- model0 -->
<g id="node3" class="node">
<title>model0</title>
<ellipse fill="none" stroke="black" cx="44.85" cy="-279" rx="44.69" ry="18"/>
<text text-anchor="middle" x="44.85" y="-275.3" font-family="Times,serif" font-size="14.00">model0</text>
</g>
<!-- model2 -->
<g id="node4" class="node">
<title>model2</title>
<ellipse fill="none" stroke="black" cx="44.85" cy="-192" rx="44.69" ry="18"/>
<text text-anchor="middle" x="44.85" y="-188.3" font-family="Times,serif" font-size="14.00">model2</text>
</g>
<!-- model0&#45;&gt;model2 -->
<g id="edge1" class="edge">
<title>model0&#45;&gt;model2</title>
<path fill="none" stroke="black" d="M44.85,-260.8C44.85,-249.16 44.85,-233.55 44.85,-220.24"/>
<polygon fill="black" stroke="black" points="48.35,-220.18 44.85,-210.18 41.35,-220.18 48.35,-220.18"/>
<text text-anchor="middle" x="75.35" y="-231.8" font-family="Times,serif" font-size="14.00">path0(1)</text>
</g>
<!-- model2&#45;&gt;model3 -->
<g id="edge2" class="edge">
<title>model2&#45;&gt;model3</title>
<path fill="none" stroke="black" d="M44.85,-173.8C44.85,-162.16 44.85,-146.55 44.85,-133.24"/>
<polygon fill="black" stroke="black" points="48.35,-133.18 44.85,-123.18 41.35,-133.18 48.35,-133.18"/>
<text text-anchor="middle" x="75.35" y="-144.8" font-family="Times,serif" font-size="14.00">path1(1)</text>
</g>
</g>
</svg>
